<svg width="300" height="150" xmlns="http://www.w3.org/2000/svg" xmlns:xlink="http://www.w3.org/1999/xlink" viewBox="0 0 10080 5040"><defs><clipPath id="b"><path d="M0 0h6v3H0z"/></clipPath><clipPath id="c"><path d="M0 0v1.5h6V3zm6 0H3v3H0z"/></clipPath><path id="a" d="m0-360 69.42 215.85 212.04-80.3L155.99-35.6 350.98 80.1 125.09 99.77l31.1 224.59L0 160l-156.2 164.35 31.1-224.6-225.87-19.64L-156-35.6l-125.47-188.86 212.04 80.3z"/><path id="e" d="M0-210 54.86-75.5l144.86 10.6L88.77 28.85l34.67 141.05L0 93.33l-123.43 76.56 34.67-141.05-110.96-93.73 144.86-10.62z"/><use xlink:href="#a" id="d" transform="scale(2.1)"/></defs><path fill="#012169" d="M0 0h10080v5040H0z"/><path stroke="#fff" stroke-width=".6" d="m0 0 6 3m0-3L0 3" clip-path="url(#b)" transform="scale(840)"/><path stroke="#e4002b" stroke-width=".4" d="m0 0 6 3m0-3L0 3" clip-path="url(#c)" transform="scale(840)"/><path stroke="#fff" stroke-width="840" d="M2520 0v2520M0 1260h5040"/><path stroke="#e4002b" stroke-width="504" d="M2520 0v2520M0 1260h5040"/><g fill="#fff"><use xlink:href="#d" x="2520" y="3780"/><use xlink:href="#a" x="7560" y="4200"/><use xlink:href="#a" x="6300" y="2205"/><use xlink:href="#a" x="7560" y="840"/><use xlink:href="#a" x="8680" y="1869"/><use xlink:href="#e" x="8064" y="2730"/></g></svg>