<svg xmlns="http://www.w3.org/2000/svg" viewBox="0 0 252 126"><path fill="#319208" d="M0 0h252v126H0z"/><path fill="#FFD200" d="M0 18h252v90H0z"/><path fill="#DE2010" d="M0 36h252v54H0z"/><path d="M0 54h252v18H0z"/><path d="m4.58 0 84 63-84 63H0V0z"/><path fill="#FFF" d="m0 0 84 63-84 63"/><path fill="#DE2010" d="m46.16 66.05 18.27-12.94-21.02-3.05L34 31l-9.4 19.06-21.03 3.05 18.27 12.94-4 19.2L34 76l16.16 9.25z"/><path fill="#FFC618" d="M28.64 55.1c1.97 4.31 2.47 4.6 7.4 6.3 4.95 1.69 18.9 3.3 20.28 3.45-.9-.9-16.62-12.55-19.85-14.88-3.23-2.32-4.13-3.38-4.13-3.38s-2.91-5.24-3.92-6.78c-1-1.53-2.85-3.7-5.29-3.7s-3.92 1.42-4.62 3.97c-.39.1-2.47 1.37-2.4 2.68.6-.07 4.37-1.13 5.68 3.14s1.38 11.26.04 14.71c-1.35 3.46-3.43 6.07-3.43 9.1 0 .43.28 1.28.99 1.28.25 1.34 2.22 10.9 2.22 10.9h28.16l4.48-17.29"/><g fill="none" stroke="#000" stroke-width=".21"><path d="M28.64 55.1c1.97 4.31 2.47 4.6 7.4 6.3 4.95 1.69 18.9 3.3 20.28 3.45-.9-.9-16.62-12.55-19.85-14.88-3.23-2.32-4.13-3.38-4.13-3.38s-2.91-5.24-3.92-6.78c-1-1.53-2.85-3.7-5.29-3.7s-3.92 1.42-4.62 3.97c-.39.1-2.47 1.37-2.4 2.68.6-.07 4.37-1.13 5.68 3.14s1.38 11.26.04 14.71c-1.35 3.46-3.43 6.07-3.43 9.1 0 .43.28 1.28.99 1.28.25 1.34 2.22 10.9 2.22 10.9h28.16l4.48-17.29"/><path d="M19.39 70.99s6-.35 7.62-.35 16.74.02 25.17 1.97"/><path d="M21.5 70.87s-.6-.73-.2-2.17c.38-1.45 4.62-5.2 4.62-10.49m-.78 12.43s-.5-2.37 4.9-4.38c1.53-.46 5.87-2.9 6-4.87"/><path d="M29.47 66.49s13.25.05 23.73 2.17M32.8 64.9s4.54.16 5.29-.05a3.6 3.6 0 0 0 2.57-2.31"/><path d="M35.49 64.96s2.43-1.27 2.91-2.91M28.14 81.9s-1.04-7.22-1.25-11.26l2.71 2.6 2.88-2.52 2.47 2.64 2.86-2.43 2.47 2.78 2.83-2.4 2.25 2.6 2.82-2.03 3.36 3.19"/><path d="M50.95 77.35C40.87 75.9 27.38 76 27.38 76M22.7 51.05s8.2-3.92 9.64-4.46"/></g><g fill="none" stroke="#000" transform="translate(16 36)scale(.21174)"><path d="m52.49 177.09 13.02 11.85 11.76-11.76 11.89 12.26 12.85-11.36 11.83 12.43 13.34-11.01 10.89 12.73 13.27-10.15 13.95 12.32"/><circle cx="89.42" cy="154.58" r="5.17"/><circle cx="111.24" cy="156.05" r="5.17"/><circle cx="30.05" cy="16.5" r="4"/></g></svg>