<svg xmlns="http://www.w3.org/2000/svg" viewBox="-100 -100 200 200"><defs><clipPath id="g"><circle r="100"/></clipPath></defs><circle r="100" fill="#33B3FB"/><g clip-path="url(#g)"><path fill="#5ED34F" transform="scale(0.114443) translate(-1023.2 -1031.3)" d="M 0 432.5 L 0 865 3.8 865 C 5.8 865,9.5 865.9,11.9 867 C 15 868.4,18.4 869,23.9 869 C 29.3 869,32.8 869.6,35.9 871 C 39 872.4,42.4 873,47.9 873 C 53.3 873,56.8 873.6,59.9 875 C 63 876.4,66.4 877,71.9 877 C 77.3 877,80.8 877.6,83.9 879 C 87 880.4,90.4 881,95.9 881 C 101.3 881,104.8 881.6,107.9 883 C 111.2 884.5,114.4 885,121.9 885 C 129.3 885,132.5 885.5,135.9 887 C 139.1 888.5,142.4 889,148.6 889 C 159.8 889,161 887.9,161 877.5 C 161 872.6,161.6 868.6,162.7 866.2 C 163.6 864.2,164.6 859,165 854.7 C 166.4 837.7,174.5 837.7,176.1 854.7 C 177.1 866.3,184.9 886,192 895 C 193.5 896.9,195.4 899.9,196.3 901.5 C 197.1 903.2,200.8 907.7,204.4 911.6 C 209.5 917.2,212.3 921.6,217.4 932 L 224 945.3 224 983.2 C 224 1021.1,224 1021.1,227 1026.8 C 233.2 1038.6,242.2 1050,247.5 1052.7 C 249.1 1053.6,253 1056.4,256 1059 C 259.3 1061.9,267.3 1066.7,276 1071 C 284 1075,292.1 1079.5,294 1081 C 295.9 1082.5,300.6 1085.4,304.5 1087.4 C 324.1 1097.6,348.6 1122,351.6 1134.5 C 352 1136.2,353.1 1139.3,354.1 1141.5 C 357 1147.7,356.8 1185.6,354 1191.9 C 352.6 1195,352 1198.4,352 1203.9 C 352 1209.3,351.4 1212.8,350 1215.9 C 347.2 1222,346.9 1287,349.6 1292.3 C 350.5 1294,351.6 1297.9,352 1301 C 353.2 1309.2,355.4 1315,363.1 1330.5 C 369.4 1343.4,371.8 1347.4,379.7 1358.3 C 383.9 1364.1,411.1 1390.5,415 1392.5 C 416.8 1393.4,421.1 1396.5,424.6 1399.4 C 428 1402.2,432.9 1405.8,435.5 1407.5 C 438.1 1409.2,441.9 1411.6,444 1413 C 446.1 1414.4,449.9 1416.8,452.5 1418.5 C 455.1 1420.2,460.6 1424.6,464.8 1428.3 C 469.1 1432.1,474.1 1436,476 1437 C 479.7 1438.9,492 1451.1,492 1452.9 C 492 1453.5,494.4 1456.9,497.4 1460.4 C 503.1 1467,510.2 1480,511.5 1485.9 C 511.9 1487.7,513.1 1491.1,514.1 1493.4 C 515.1 1495.6,516 1499.1,516 1501.1 C 516 1503.1,516.9 1506.7,518 1509.1 C 519.1 1511.5,520 1515.1,520 1517.1 C 520 1519.1,520.9 1522.7,522 1525.1 C 523.1 1527.5,524 1531.1,524 1533.1 C 524 1535.1,524.9 1538.7,526 1541.1 C 527.2 1543.8,528 1547.7,528 1551.1 C 528 1554.6,528.8 1558.5,530 1561.1 C 531.1 1563.5,532 1567.1,532 1569.1 C 532 1571.1,532.9 1574.7,534 1577.1 C 535.1 1579.5,536 1583.2,536 1585.2 C 536 1587.3,536.6 1590.4,537.4 1592.2 C 538.8 1595.4,540.6 1600.7,543.5 1610 C 547.1 1621.5,548.3 1625,551.4 1631.5 C 553.2 1635.3,555.1 1640.1,555.5 1642 C 556.5 1646.5,564.5 1662.5,568 1667 C 569.5 1668.9,572.2 1673.4,574 1676.9 C 575.8 1680.5,578.5 1685.2,580.1 1687.4 C 586.1 1695.7,590 1701.6,591.9 1705 C 593 1707,596.7 1711.7,600.3 1715.5 C 603.8 1719.4,607.5 1724.1,608.5 1726 C 610.8 1730.5,630.5 1750.2,635 1752.5 C 636.9 1753.5,641.6 1757.2,645.5 1760.7 C 649.3 1764.3,653.8 1767.9,655.4 1768.7 C 657 1769.5,661.1 1772.5,664.5 1775.4 C 670.6 1780.5,706.2 1798.8,717.5 1802.6 C 734.8 1808.4,749 1801.3,749 1786.8 C 749 1776.9,745.7 1770.9,732.3 1756.6 C 713.5 1736.7,705 1721.1,705 1706.8 C 705 1700.9,705.5 1696.7,706.6 1694.2 C 707.5 1692.2,708.8 1688.5,709.6 1686 C 711.1 1680.9,727.5 1664.1,736.4 1658.5 C 739 1656.8,742.9 1654.4,745 1653 C 747.1 1651.6,750.9 1649.2,753.5 1647.5 C 756.1 1645.8,761.3 1641.9,765.2 1638.8 C 769.1 1635.6,772.6 1633,773.1 1633 C 774.7 1633,783.1 1624.7,784.7 1621.6 C 785.6 1619.9,788.4 1616,791 1613 C 796.2 1607,800.3 1599.5,801.5 1594 C 801.9 1592.1,804.9 1585.1,808.2 1578.5 C 814.5 1565.8,828.3 1549.7,837 1544.9 C 838.9 1543.8,842.8 1541.4,845.5 1539.5 C 848.2 1537.6,852.5 1534.7,855 1533 C 857.5 1531.3,861.8 1528.4,864.5 1526.5 C 867.2 1524.6,871.2 1522.1,873.2 1521 C 883 1515.7,897 1494.8,897 1485.3 C 897 1483.2,897.9 1479.5,899 1477.1 C 900.4 1474,901 1470.6,901 1465.1 C 901 1459.9,901.6 1456.2,902.9 1453.4 C 903.9 1451.1,905.1 1447.7,905.5 1445.9 C 906.5 1441.4,921.5 1411.5,925 1407 C 929.6 1401.1,937 1385.4,937 1381.5 C 937 1379.5,937.9 1375.7,939.1 1373.1 C 941.8 1366.8,941.5 1341.7,938.6 1333.5 C 931 1311.9,920.7 1301.5,894.5 1288.8 C 874.9 1279.4,869.4 1277.2,861 1276 C 858 1275.6,853.9 1274.5,852 1273.7 C 845.9 1271,838.7 1268.9,833 1268 C 829.9 1267.6,826 1266.5,824.3 1265.6 C 822.5 1264.7,819.5 1264,817.5 1264 C 815.5 1264,811.8 1263.1,809.2 1262.1 C 804 1260,796.9 1257.6,790 1255.6 C 787.5 1254.9,782.8 1252.9,779.5 1251.3 C 776.2 1249.6,772.1 1247.9,770.3 1247.6 C 768.6 1247.2,765.3 1245.6,763.2 1244 C 761 1242.4,756.4 1239.7,753 1238 C 749.6 1236.3,743.9 1232.4,740.4 1229.4 C 736.9 1226.4,733.5 1224,733 1224 C 731.1 1224,722.9 1215.7,720.9 1211.9 C 719.9 1209.8,715.3 1204.2,710.7 1199.3 C 706.1 1194.5,701.5 1188.9,700.5 1187 C 698.2 1182.5,670.6 1154.8,666 1152.5 C 664.1 1151.5,659.4 1147.8,655.5 1144.3 C 651.7 1140.7,647 1137,645 1135.9 C 641.6 1134,635.7 1130.1,627.4 1124.1 C 619.5 1118.4,589.3 1104,585.3 1104 C 583.2 1104,579.5 1103.1,577.1 1102 C 574.7 1100.9,571.1 1100,569.1 1100 C 567.1 1100,563.5 1099.1,561.1 1098 C 557.5 1096.3,554.6 1096,542.5 1096 C 530.4 1096,527.5 1096.3,523.9 1098 C 520.2 1099.6,517.3 1100,505.9 1100 C 495.8 1100,491.3 1100.4,488.5 1101.6 C 485.1 1103,484.3 1103,480.6 1101.7 C 478.3 1100.8,474.3 1100,471.6 1099.7 C 462.1 1098.8,446.7 1080.5,444.9 1068 C 441.9 1046.7,426.8 1023,411.2 1015.1 C 403.2 1011,368 1010.3,359.9 1014 C 350.7 1018.1,335.2 1016.9,323.4 1011.1 C 311.7 1005.4,311.5 1005.2,305.6 993.1 C 300.1 981.8,299 966.7,303 957.2 C 304 954.6,305.4 950.7,306 948.5 C 307.9 941.3,315.8 929.2,324.5 920.5 C 333.2 911.8,345.3 903.9,352.5 902 C 354.7 901.4,358.6 900,361.2 899 C 363.8 897.9,367.4 897,369.3 897 C 371.2 897,374.7 896.1,377.1 895 C 389.8 889.3,401.2 893.1,417.1 908.5 C 436.7 927.4,445.8 929,459.3 916.1 C 467.3 908.6,469 903.2,469 885.3 C 469 871.7,469.3 868.9,471 865.1 C 472.4 862,473 858.6,473 853.1 C 473 842.1,475.7 837,487.8 824.7 C 497.4 814.9,497.6 814.8,516.5 805.3 C 527 800,537.1 794.5,539 793 C 540.9 791.5,544 789.5,545.9 788.5 C 555.5 783.6,562.2 774.5,575 749.3 C 590.8 718,593.8 713.7,604.5 706.4 C 611.5 701.7,633.8 690.4,638 689.5 C 639.9 689.1,644.6 687.2,648.5 685.4 C 655 682.3,658.5 681.1,670 677.5 C 681.9 673.8,685.2 672.6,694 668.3 C 699.2 665.8,705.1 662.5,707 661 C 708.9 659.5,711.9 657.5,713.7 656.6 C 719.9 653.4,726.8 645.3,732 634.9 C 737 625,737 625,737 610.5 C 737 596,737 596,730.4 582.7 C 726.6 575.1,721.8 567.2,719 564 C 716.4 561,713.5 556.9,712.5 555 C 709.5 549.1,694.1 534.6,687.2 531.1 C 681.3 528.1,680.6 528,668.5 528 C 655.1 528,644.7 531.6,634 540 C 629.5 543.5,623.4 546.6,619.1 547.5 C 617.3 547.9,613.9 549.1,611.6 550.1 C 606.4 552.5,598.7 552.5,593.5 550.1 C 591.3 549.1,588.1 548,586.5 547.6 C 579.9 546,573 536.2,573 528.5 C 573 518.3,584.3 505.4,600.5 497.3 C 606.5 494.2,613.1 490.5,615 489 C 616.9 487.5,619.9 485.5,621.7 484.6 C 637.9 476.4,646.2 453.7,637.1 442.3 C 627.8 430.4,613.2 422.3,597 420.1 C 589.9 419.1,582.6 415.3,577.5 410 C 569.1 401.4,573.2 390.7,587.5 383.9 C 590.8 382.3,595.1 381,597.1 381 C 599.1 381,602.7 380.1,605.1 379 C 607.8 377.8,611.7 377,615.1 377 C 618.6 377,622.5 376.2,625.1 375 C 628.2 373.6,631.7 373,637.1 373 C 642.6 373,646 372.4,649.1 371 C 654.6 368.5,665.5 368.3,670.8 370.6 C 672.8 371.5,676.3 372.7,678.5 373.4 C 682 374.5,687.1 377.5,695.8 383.5 C 698.3 385.3,702.4 392.9,703.5 397.9 C 703.9 399.7,705.1 403.1,706.1 405.4 C 707.7 408.8,708 412,708 425.1 C 708 438.6,708.3 441.4,710 445.1 C 711.2 447.8,712 451.7,712 455.3 C 712 467.3,726.7 490.9,739.5 499.6 C 753.2 508.9,753.7 509,776.5 509 C 798.3 509,806.7 506.6,819 497 C 820.9 495.5,824.1 493.5,826 492.5 C 827.9 491.5,839.9 480.5,852.6 468.1 C 878.3 443,879.3 442.2,900.5 431.4 C 908.8 427.2,917.1 422.5,919 421 C 920.9 419.5,925.6 416.6,929.5 414.6 C 933.4 412.6,938.8 409.4,941.5 407.5 C 944.2 405.6,948.5 402.7,951 401 C 953.5 399.3,957.8 396.4,960.5 394.5 C 963.2 392.6,967.2 390.1,969.4 388.9 C 973.7 386.6,997 364.2,1001.3 358.3 C 1009 347.5,1011.4 343.7,1015.9 334.5 C 1024.1 318,1024.3 316.9,1024.7 295.3 C 1025.1 276.1,1025.1 276.1,1022 270 C 1018.6 263.2,1007.5 251.3,1001.9 248.4 C 1000 247.5,996.9 245.4,994.9 243.8 C 992.9 242.2,989.1 240.3,986.4 239.5 C 979 237.4,971.9 235,968.2 233.4 C 966.4 232.6,963.3 232,961.2 232 C 959.2 232,955.5 231.1,953.1 230 C 946.4 226.9,838.6 226.9,831.9 230 C 828.3 231.6,825.3 232,815.9 232 C 806.4 232,803.4 232.4,799.9 234 C 796.5 235.5,793.3 236,785.9 236 C 778.3 236,775.2 236.4,771.5 238.1 C 762.9 241.9,752.2 240.6,746.7 235.2 C 739.1 227.8,733.3 214.1,735.4 208.7 C 737.4 203.5,737.4 201,735.6 196.8 C 734 193.3,731.7 186.2,729.6 179 C 728.9 176.5,727 172,725.5 169 C 724 166,722.1 161.5,721.4 159 C 719.7 153.2,717.2 145.4,715.5 141 C 714.1 137.3,711.8 130.4,709.5 123 C 707.2 115.6,704.9 108.7,703.5 105 C 701.8 100.5,699.3 92.8,697.6 87 C 696.9 84.5,695 80,693.5 77 C 692 74,690.1 69.5,689.4 67 C 687.7 61.2,685.2 53.5,683.5 49 C 682.1 45.3,679.8 38.4,677.5 31 C 674.8 22.4,672.8 16.5,670.9 11.8 C 669.9 9.2,669 5.5,669 3.6 L 669 0 334.5 0 L 0 0 0 432.5 M 1747.6 3.1 C 1747.3 4.8,1745.7 7.8,1744.2 9.8 C 1742.6 11.9,1740.7 14.6,1740 15.9 C 1739.3 17.3,1736.4 21.2,1733.6 24.6 C 1728.9 30.3,1726 34.5,1720.5 43.4 C 1719.4 45.1,1716.2 49.3,1713.5 52.7 C 1710.8 56.1,1707.2 60.9,1705.5 63.5 C 1703.8 66.1,1701.4 69.9,1700 72 C 1698.6 74.1,1696.2 77.9,1694.5 80.5 C 1692.8 83,1689 88.2,1686 92 C 1680.9 98.3,1677.8 102.8,1672.5 111.4 C 1671.4 113.1,1668.2 117.3,1665.5 120.7 C 1662.8 124.1,1659.2 128.9,1657.5 131.5 C 1655.8 134.1,1653.4 137.9,1652 140 C 1650.6 142.1,1648.2 145.9,1646.5 148.5 C 1644.8 151,1641 156.2,1638 160 C 1635 163.7,1631.2 168.9,1629.5 171.5 C 1627.8 174.1,1625.4 177.9,1624 180 C 1622.6 182.1,1620.2 185.9,1618.5 188.5 C 1616.8 191,1613 196.2,1610 200 C 1604.9 206.3,1601.8 210.8,1596.5 219.4 C 1595.4 221.1,1592.2 225.3,1589.5 228.7 C 1586.8 232.1,1583.2 236.9,1581.5 239.5 C 1579.8 242.1,1577.4 245.9,1576 248 C 1574.6 250.1,1572.2 253.9,1570.5 256.5 C 1568.8 259,1565 264.2,1562 268 C 1556.9 274.3,1553.8 278.8,1548.5 287.4 C 1547.4 289.1,1544.1 293.4,1541.2 296.8 C 1538.4 300.3,1536 303.5,1536 303.9 C 1536 304.4,1534.4 306.7,1532.5 309.1 C 1528.3 314.4,1528.1 317.9,1531.5 322.4 C 1534.8 326.8,1534.8 329.7,1531.2 331.1 C 1511.9 338.7,1496 353.2,1496 363.4 C 1496 365.6,1495.1 369.5,1494 371.9 C 1492.9 374.3,1492 378.1,1492 380.5 C 1492 382.9,1492.9 386.7,1494 389.1 C 1495.1 391.5,1496 395.2,1496 397.2 C 1496 400.1,1501.3 411.5,1518 445 C 1535.2 479.5,1540 489.9,1540 492.9 C 1540 495,1540.9 498.7,1542 501.1 C 1544.7 507.2,1544.8 525.6,1542.1 531.5 C 1541.1 533.7,1540 536.9,1539.6 538.5 C 1537.9 545.3,1526.2 560.8,1520.6 563.7 C 1518.9 564.5,1515 567.4,1512 570 C 1506.1 575.1,1492.8 582.2,1487 583.5 C 1485.1 583.9,1482.2 584.8,1480.5 585.6 C 1477.6 586.8,1472 588.7,1463 591.5 C 1454.4 594.2,1448.5 596.2,1443.8 598.1 C 1441.2 599.1,1437.6 600,1435.7 600 C 1433.8 600,1430.3 600.9,1427.9 602 C 1425.5 603.1,1421.8 604,1419.8 604 C 1417.7 604,1414.6 604.6,1412.8 605.4 C 1409.3 607,1402.3 609.3,1395 611.4 C 1382.2 615.1,1356.7 630.3,1351.1 637.4 C 1349.7 639.3,1346.6 643.1,1344.4 645.9 C 1342 648.8,1339.9 652.5,1339.5 654.6 C 1339.1 656.7,1338.2 659.7,1337.4 661.2 C 1335.1 665.6,1335.5 683.7,1338 689.1 C 1339.1 691.5,1340 695.2,1340 697.3 C 1340 701.4,1343.6 709.4,1348 715 C 1349.5 716.9,1351.5 720,1352.4 721.8 C 1354.4 725.7,1373.1 745.3,1378.7 749.3 C 1393.2 759.7,1399.8 763.5,1407 765.6 C 1413.8 767.5,1421.1 770,1425 771.6 C 1430.3 773.8,1468.5 773.1,1475.5 770.6 C 1478.2 769.7,1494.5 762,1511.5 753.6 C 1528.5 745.2,1544 737.9,1545.9 737.5 C 1547.7 737.1,1551.1 735.9,1553.4 734.9 C 1556.9 733.3,1560.1 733,1576.6 733 C 1595.7 733,1595.7 733,1605.6 737.9 C 1615.2 742.6,1632 757.2,1632 760.8 C 1632 761.4,1634.7 765.1,1638 769.1 C 1641.3 773,1644 776.6,1644 777.1 C 1644 780,1653.2 787.6,1662.2 792.1 C 1680.3 801.2,1702 798.4,1719.1 784.9 C 1724.1 781,1732.8 777,1736.6 777 C 1751.1 777,1792 813.7,1795.5 829.9 C 1795.9 831.7,1797.1 835.1,1798.1 837.4 C 1801.1 844,1800.7 854.1,1797.1 861.5 C 1791.9 872.5,1785 876,1768.4 876 C 1757.2 876,1757.2 876,1743.4 869 C 1729.1 861.8,1724.3 858.8,1713 850 C 1690.3 832.2,1681.5 828.8,1657.6 828.3 C 1642.3 827.9,1640.2 828.1,1635.9 830 C 1633 831.2,1629 832,1625.6 832 C 1622.6 832,1618.6 832.6,1616.8 833.4 C 1613.3 834.9,1606.3 837.3,1599 839.4 C 1596.5 840.1,1586.6 844.7,1577 849.5 C 1559.5 858.2,1559.5 858.2,1540.9 876.9 C 1530.6 887.1,1521.3 897.3,1520.1 899.5 C 1518.9 901.7,1516.4 905.8,1514.5 908.5 C 1512.6 911.2,1509.7 915.5,1508 918 C 1506.3 920.5,1503.4 924.8,1501.5 927.5 C 1496.8 934.2,1484.4 958.6,1483.5 963 C 1483.1 964.9,1481.2 969.5,1479.4 973.2 C 1477.4 977.2,1476 981.5,1476 983.7 C 1476 985.8,1475.1 989.5,1474 991.9 C 1472.8 994.5,1472 998.4,1472 1001.9 C 1472 1005.3,1471.2 1009.2,1470 1011.9 C 1468.2 1015.7,1468 1018.4,1468 1033.9 C 1468 1058.6,1466.1 1062.4,1438.9 1090.5 C 1429.7 1099.9,1421.4 1109.2,1420.5 1111.1 C 1419.5 1113,1416.6 1117,1414 1120 C 1410.9 1123.5,1406.1 1131.8,1400.6 1142.8 L 1391.9 1160.1 1392.3 1183.3 C 1392.7 1210.1,1392.4 1209.1,1403.1 1230.5 C 1418.1 1260.9,1431.2 1274.5,1458.5 1287.9 C 1470.1 1293.7,1476.3 1295.9,1484 1297 C 1487.1 1297.4,1491 1298.5,1492.7 1299.4 C 1497.3 1301.7,1523.7 1301.7,1528.3 1299.4 C 1530 1298.5,1533.9 1297.4,1537 1297 C 1545.2 1295.8,1550.9 1293.7,1567.5 1285.6 C 1575.8 1281.6,1584 1277.9,1585.9 1277.5 C 1587.7 1277.1,1591.1 1275.9,1593.4 1274.9 C 1599.4 1272.2,1625.6 1272.2,1631.6 1274.9 C 1633.9 1275.9,1637.2 1277.1,1639.1 1277.5 C 1646.1 1279.1,1657.5 1292.7,1659.5 1301.9 C 1659.9 1303.7,1661.1 1307.1,1662.1 1309.4 C 1664.8 1315.3,1664.7 1329.8,1662 1335.9 C 1660.9 1338.3,1660 1341.8,1660 1343.7 C 1660 1345.6,1659.1 1349.2,1658.1 1351.8 C 1654.7 1360.1,1652.8 1366.4,1652 1372 C 1651.6 1375.1,1650.5 1379,1649.6 1380.7 C 1648.7 1382.5,1648 1385.6,1648 1387.7 C 1648 1389.8,1647.1 1393.5,1646 1395.9 C 1644.2 1399.8,1644 1402.4,1644 1422.5 C 1644 1442.6,1644.2 1445.2,1646 1449.1 C 1647.6 1452.8,1648 1455.7,1648 1466.5 C 1648 1477.3,1647.6 1480.2,1646 1483.9 C 1644.6 1487,1644 1490.4,1644 1495.7 C 1644 1500.7,1643.4 1504.7,1642.1 1507.8 C 1640 1512.9,1637.6 1520,1635.6 1527 C 1633.8 1533,1603.5 1593.6,1600 1598 C 1593.3 1606.4,1581.5 1633.8,1580 1644 C 1579.6 1647.1,1578.5 1651,1577.6 1652.7 C 1575.1 1657.6,1575.7 1660.8,1580.8 1670.4 C 1585.3 1679,1585.8 1679.5,1592.1 1682.9 C 1600.5 1687.5,1601.7 1688.5,1604.1 1693.3 C 1605.3 1695.5,1611.7 1702.9,1618.4 1709.9 C 1625.2 1716.8,1631.5 1724,1632.5 1725.9 C 1633.4 1727.8,1640.6 1735.9,1648.5 1743.9 C 1656.3 1751.9,1663.5 1760,1664.5 1761.9 C 1665.4 1763.7,1671.7 1770.9,1678.5 1777.9 C 1685.2 1784.8,1691.5 1792,1692.5 1793.9 C 1693.4 1795.7,1699.7 1802.9,1706.5 1809.9 C 1713.2 1816.8,1719.5 1824,1720.5 1825.9 C 1721.4 1827.8,1728.6 1835.9,1736.5 1843.9 C 1744.3 1851.9,1751.5 1860,1752.5 1861.9 C 1753.4 1863.7,1759.7 1870.9,1766.5 1877.9 C 1773.2 1884.8,1779.5 1892,1780.5 1893.9 C 1781.4 1895.7,1787.7 1902.9,1794.5 1909.9 C 1801.2 1916.8,1807.5 1924,1808.5 1925.9 C 1809.4 1927.7,1815.7 1934.9,1822.5 1941.9 C 1829.2 1948.8,1835.5 1956,1836.5 1957.9 C 1837.4 1959.8,1844.6 1967.9,1852.5 1975.9 C 1860.3 1983.9,1867.5 1992,1868.5 1993.9 C 1869.4 1995.7,1875.7 2002.9,1882.5 2009.9 C 1889.2 2016.8,1895.4 2023.8,1896.3 2025.5 C 1897.1 2027.2,1901.8 2032.8,1906.6 2038.2 L 1915.5 2047.8 1981.8 2047.9 L 2048 2048 2048 1024 L 2048 0 1898.1 -0 L 1748.2 -0 1747.6 3.1 M 1398.5 414.6 C 1391.6 418.2,1386.4 423.4,1382.9 430.3 C 1377.3 441.2,1379.2 465.8,1386.7 482 C 1388.1 485,1390.5 489.1,1392 491 C 1393.5 492.9,1395.5 496.1,1396.5 498 C 1398.8 502.4,1414.5 518.2,1419 520.5 C 1420.9 521.5,1425 524.4,1428 527 C 1435.1 533.1,1450.6 541,1455.7 541 C 1457.8 541,1461.5 541.9,1463.9 543 C 1472.6 547,1485.8 544.8,1493.4 538.1 C 1506.7 526.4,1504.2 481.2,1489 462 C 1487.5 460.1,1484.6 455.2,1482.6 451.2 C 1478.6 443.2,1468 431.6,1461.9 428.5 C 1460 427.5,1456.9 425.5,1455 424 C 1441.3 413.2,1410.9 408.2,1398.5 414.6 M 1553 1441.4 C 1551.6 1442.2,1548.9 1443.1,1547 1443.5 C 1541.1 1444.8,1525.8 1452.9,1520 1458 C 1517 1460.6,1513.2 1463.4,1511.5 1464.4 C 1508.5 1466,1502.2 1470.3,1494.5 1475.8 C 1492.3 1477.4,1488.9 1479.5,1487 1480.5 C 1480.6 1483.8,1461.8 1503.8,1458.8 1510.5 C 1452.2 1525.3,1450 1541.2,1453.6 1548.1 C 1454.5 1549.9,1455.6 1553.9,1456 1557 C 1458.7 1576,1470.4 1596.1,1482.2 1602.1 C 1489.4 1605.7,1491.7 1605.7,1498.8 1602 C 1503.8 1599.4,1506.6 1597.5,1516.7 1590.5 C 1518 1589.6,1519.7 1587.5,1520.6 1585.7 C 1521.5 1583.9,1526 1578.5,1530.6 1573.7 C 1535.2 1568.9,1539.7 1563.5,1540.6 1561.7 C 1541.5 1559.9,1546.9 1553.7,1552.6 1547.8 C 1558.3 1541.9,1563.7 1535.6,1564.6 1533.8 C 1565.5 1532,1568.4 1528,1571 1525 C 1573.8 1521.8,1578.6 1513.9,1582.4 1506.3 L 1589 1493 1589 1476.3 C 1589 1459.9,1589 1459.5,1586.4 1455.8 C 1578.3 1444.1,1561.5 1436.9,1553 1441.4"/></g></svg>